/* XPM */
static char * ebook2cw_xpm[] = {
"32 32 89 1",
" 	c None",
".	c #FFFFFF",
"+	c #FFC7C7",
"@	c #FF6464",
"#	c #FF2121",
"$	c #FF0505",
"%	c #FF1212",
"&	c #FF4848",
"*	c #FFBFBF",
"=	c #FF0000",
"-	c #FF0202",
";	c #FFACAC",
">	c #FF3939",
",	c #FF9E9E",
"'	c #FFE1E1",
")	c #FFF9F9",
"!	c #FFD4D4",
"~	c #FF3F3F",
"{	c #FF2828",
"]	c #FF9D9D",
"^	c #FF3D3D",
"/	c #FF0F0F",
"(	c #FF0606",
"_	c #FF2323",
":	c #FF7474",
"<	c #FFEFEF",
"[	c #FFE3E3",
"}	c #FF0303",
"|	c #FFFAFA",
"1	c #FF8D8D",
"2	c #FF2F2F",
"3	c #FF0909",
"4	c #FF2929",
"5	c #FF7A7A",
"6	c #FFFDFD",
"7	c #FF5151",
"8	c #FF2B2B",
"9	c #FFF0F0",
"0	c #FFE9E9",
"a	c #FF4545",
"b	c #FF8C8C",
"c	c #FF1F1F",
"d	c #FFAEAE",
"e	c #FFCBCB",
"f	c #FF3B3B",
"g	c #FF7676",
"h	c #FF3A3A",
"i	c #FF8B8B",
"j	c #FF0D0D",
"k	c #FF9797",
"l	c #FFF6F6",
"m	c #FFA7A7",
"n	c #FF2C2C",
"o	c #FF2D2D",
"p	c #FF2424",
"q	c #FFA2A2",
"r	c #FF0101",
"s	c #FF0404",
"t	c #FFC0C0",
"u	c #FF2E2E",
"v	c #FFA1A1",
"w	c #FF0808",
"x	c #FFA3A3",
"y	c #FFF2F2",
"z	c #FF0707",
"A	c #FF9898",
"B	c #FFCFCF",
"C	c #FF9595",
"D	c #FF8383",
"E	c #FF1B1B",
"F	c #FFF7F7",
"G	c #FFD8D8",
"H	c #FF9999",
"I	c #FF0E0E",
"J	c #FF9494",
"K	c #FFE6E6",
"L	c #FFF5F5",
"M	c #FF9F9F",
"N	c #FF5A5A",
"O	c #FFEAEA",
"P	c #FF4040",
"Q	c #FFB0B0",
"R	c #FF4C4C",
"S	c #FF1919",
"T	c #FF2A2A",
"U	c #FF6969",
"V	c #FFC8C8",
"W	c #FF8080",
"X	c #FF2020",
"                                ",
"                                ",
"                                ",
"         ............           ",
"      ..................        ",
"    ......................      ",
"   ........................     ",
"  ..........................    ",
" ...........+@#$%&*..........   ",
" ...........======-;.........   ",
"............>,')!~={..........  ",
"...]^/(_:<.......[=}....|123(45 ",
".67======89......0=3...)a====== ",
".b=cd<)ef=g......g=h...i=jk0lmn ",
".o=+....[=p.....qrst...u=v....  ",
".w========$....x}rv....3=y....  ",
".z=========...A-rk.....3=y....  ",
".{=B.........1=rC......2=q...   ",
".D=E,'|FGH>.D=rk.......i=IJKLM{ ",
" .N========.========O..)P====== ",
" ..QRS$3TUV.========O...)Wp$(Xg ",
"  ...........................   ",
"   .........................    ",
"   ........................     ",
"     ......................     ",
"       ..................       ",
"         ..............         ",
"               ....             ",
"                                ",
"                                ",
"                                ",
"                                "};
